<svg width="103" height="25" viewBox="0 0 103 25" fill="none" xmlns="http://www.w3.org/2000/svg">
<path d="M6.78 14L2.1 6.72C2.00667 6.58667 1.9 6.48 1.78 6.4C1.66 6.30667 1.52 6.24667 1.36 6.22L0.3 5.98V5.54H7.5V5.98L6.48 6.2C6.16 6.26667 5.91333 6.38667 5.74 6.56C5.58 6.72 5.60667 6.96667 5.82 7.3L8.48 11.54H8.14L11.24 7.08C11.3467 6.92 11.3733 6.78 11.32 6.66C11.2667 6.52667 11.0867 6.42667 10.78 6.36L9.08 5.98V5.54H14.66V5.98L13.4 6.24C13.1467 6.29333 12.9333 6.37333 12.76 6.48C12.5867 6.57333 12.4533 6.73333 12.36 6.96L7.64 13.86L6.78 14ZM3.78 19V18.56L4.8 18.34C5.26667 18.2333 5.56 18.1133 5.68 17.98C5.81333 17.8467 5.88 17.5733 5.88 17.16V11.94L8.68 11.78V17.16C8.68 17.5733 8.74667 17.8467 8.88 17.98C9.01333 18.1133 9.30667 18.2333 9.76 18.34L10.78 18.56V19H3.78ZM17.7539 19.16C16.8606 19.16 16.0739 18.96 15.3939 18.56C14.7139 18.16 14.1872 17.62 13.8139 16.94C13.4406 16.26 13.2539 15.4933 13.2539 14.64C13.2539 13.72 13.4406 12.9133 13.8139 12.22C14.1872 11.5133 14.7139 10.9667 15.3939 10.58C16.0739 10.18 16.8606 9.98 17.7539 9.98C18.6606 9.98 19.4539 10.18 20.1339 10.58C20.8139 10.9667 21.3406 11.5 21.7139 12.18C22.0872 12.86 22.2739 13.6267 22.2739 14.48C22.2739 15.3867 22.0872 16.1933 21.7139 16.9C21.3406 17.6067 20.8139 18.16 20.1339 18.56C19.4539 18.96 18.6606 19.16 17.7539 19.16ZM17.7739 18.52C18.4139 18.52 18.8939 18.2133 19.2139 17.6C19.5472 16.9733 19.7139 16.0067 19.7139 14.7C19.7139 13.3533 19.5472 12.34 19.2139 11.66C18.8939 10.9667 18.4006 10.62 17.7339 10.62C17.1072 10.62 16.6272 10.9267 16.2939 11.54C15.9739 12.1533 15.8139 13.1133 15.8139 14.42C15.8139 15.7667 15.9739 16.7867 16.2939 17.48C16.6272 18.1733 17.1206 18.52 17.7739 18.52ZM27.0334 19.16C26.1268 19.16 25.4201 18.92 24.9134 18.44C24.4068 17.96 24.1534 17.2733 24.1534 16.38V11.64C24.1534 11.36 24.1068 11.1733 24.0134 11.08C23.9201 10.9733 23.7868 10.9 23.6134 10.86L22.9734 10.7V10.34C23.5068 10.3 23.9601 10.26 24.3334 10.22C24.7201 10.18 25.0801 10.1267 25.4134 10.06C25.7601 9.99333 26.1468 9.91333 26.5734 9.82L26.7734 9.98C26.6801 10.1267 26.6068 10.3533 26.5534 10.66C26.5134 10.9667 26.4934 11.3 26.4934 11.66V15.64C26.4934 16.2267 26.6334 16.68 26.9134 17C27.2068 17.32 27.6201 17.48 28.1534 17.48C28.7001 17.48 29.1201 17.3133 29.4134 16.98C29.7068 16.6333 29.8534 16.1867 29.8534 15.64L30.1534 17.74H29.8734C29.4601 17.9133 29.0268 18.12 28.5734 18.36C28.1334 18.6 27.7201 18.8333 27.3334 19.06C27.2268 19.1267 27.1268 19.16 27.0334 19.16ZM30.4334 19.16L30.2334 19.06L29.9934 17.44L29.8534 16.8V11.64C29.8534 11.36 29.8068 11.1733 29.7134 11.08C29.6201 10.9733 29.4868 10.9 29.3134 10.86L28.6734 10.7V10.34C29.2068 10.3 29.6601 10.26 30.0334 10.22C30.4201 10.18 30.7801 10.1267 31.1134 10.06C31.4601 9.99333 31.8468 9.91333 32.2734 9.82L32.4734 9.98C32.3801 10.1267 32.3068 10.3533 32.2534 10.66C32.2134 10.9667 32.1934 11.3 32.1934 11.66V17.08C32.1934 17.52 32.3068 17.8333 32.5334 18.02C32.7601 18.2067 33.1401 18.3 33.6734 18.3V18.82C33.1001 18.8333 32.5601 18.88 32.0534 18.96C31.5601 19.0267 31.0201 19.0933 30.4334 19.16ZM34.8773 19V18.66L35.5173 18.42C35.7173 18.34 35.8573 18.24 35.9373 18.12C36.0173 18 36.0573 17.8333 36.0573 17.62V11.9C36.0573 11.62 36.0107 11.4333 35.9173 11.34C35.824 11.2467 35.6907 11.18 35.5173 11.14L34.8773 10.98V10.62C35.3973 10.54 35.8373 10.4733 36.1973 10.42C36.5707 10.3533 36.924 10.28 37.2573 10.2C37.5907 10.1067 37.9507 9.99333 38.3373 9.86L38.5373 10.02C38.444 10.1667 38.3707 10.3933 38.3173 10.7C38.2773 11.0067 38.2573 11.34 38.2573 11.7V11.9L38.3973 12.34V17.76C38.3973 17.9067 38.4507 18.0333 38.5573 18.14C38.664 18.2467 38.824 18.34 39.0373 18.42L39.7773 18.66V19H34.8773ZM38.3973 13.82L38.0573 11.78L40.4373 10.3C40.6507 10.1667 40.8307 10.08 40.9773 10.04C41.124 10 41.264 9.98 41.3973 9.98C41.7307 9.98 42.0307 10.12 42.2973 10.4C42.5773 10.68 42.7173 11.0267 42.7173 11.44C42.7173 11.7733 42.584 12.08 42.3173 12.36C42.064 12.6267 41.724 12.76 41.2973 12.76C41.044 12.76 40.824 12.7 40.6373 12.58C40.464 12.46 40.3107 12.3333 40.1773 12.2C40.084 12.0933 39.984 11.9933 39.8773 11.9C39.7707 11.7933 39.6507 11.74 39.5173 11.74C39.3973 11.74 39.2507 11.7867 39.0773 11.88C38.904 11.9733 38.744 12.1733 38.5973 12.48C38.464 12.7733 38.3973 13.22 38.3973 13.82Z" fill="white"/>
<path d="M47.6 19V18.56L48.62 18.34C49.0867 18.2333 49.38 18.1133 49.5 17.98C49.6333 17.8467 49.7 17.5733 49.7 17.16V7.38C49.7 6.95333 49.6333 6.67333 49.5 6.54C49.38 6.40667 49.0867 6.29333 48.62 6.2L47.6 5.98V5.54H54.6V5.98L53.58 6.2C53.1267 6.29333 52.8333 6.40667 52.7 6.54C52.5667 6.67333 52.5 6.95333 52.5 7.38V12.7L58.34 7.06C58.4867 6.92667 58.5533 6.78 58.54 6.62C58.5267 6.44667 58.3667 6.33333 58.06 6.28L56.48 5.98V5.54H61.86V5.98L61.26 6.12C61.0067 6.17333 60.7733 6.24667 60.56 6.34C60.3467 6.42 60.1267 6.54 59.9 6.7C59.6867 6.86 59.4333 7.08 59.14 7.36L55.38 11L60.54 17.72C60.7933 18 61.04 18.2067 61.28 18.34C61.52 18.4733 61.82 18.54 62.18 18.54V19H59.76C59.2 19 58.7333 18.9267 58.36 18.78C57.9867 18.62 57.6267 18.3533 57.28 17.98L53.36 12.94L52.5 13.78V17.16C52.5 17.5733 52.5667 17.8467 52.7 17.98C52.8333 18.1133 53.1267 18.2333 53.58 18.34L54.6 18.56V19H47.6ZM62.9711 19V18.66L63.6111 18.42C63.9711 18.2733 64.1511 18.0067 64.1511 17.62V11.9C64.1511 11.62 64.1044 11.4333 64.0111 11.34C63.9178 11.2467 63.7844 11.18 63.6111 11.14L62.9711 10.98V10.62C63.7311 10.5133 64.3778 10.4133 64.9111 10.32C65.4444 10.2267 65.9978 10.0733 66.5711 9.86L66.7711 10.02C66.6778 10.1667 66.6044 10.3933 66.5511 10.7C66.5111 11.0067 66.4911 11.34 66.4911 11.7V17.76C66.4911 17.9467 66.5511 18.0933 66.6711 18.2C66.8044 18.3067 66.9244 18.38 67.0311 18.42L67.6711 18.66V19H62.9711ZM65.2911 8.1C64.8778 8.1 64.5244 7.96 64.2311 7.68C63.9511 7.38667 63.8111 7.03333 63.8111 6.62C63.8111 6.20667 63.9511 5.86 64.2311 5.58C64.5244 5.28667 64.8778 5.14 65.2911 5.14C65.7044 5.14 66.0511 5.28667 66.3311 5.58C66.6244 5.86 66.7711 6.20667 66.7711 6.62C66.7711 7.03333 66.6244 7.38667 66.3311 7.68C66.0511 7.96 65.7044 8.1 65.2911 8.1ZM71.6566 19.16C70.3232 19.16 69.6566 18.3533 69.6566 16.74V10.82H68.3766V10.28C69.2832 10.16 69.9832 9.85333 70.4766 9.36C70.9699 8.85333 71.3032 8.14667 71.4766 7.24H71.9966V10.16H74.2966L74.0966 10.82H71.9966V16.58C71.9966 17.0867 72.0766 17.4267 72.2366 17.6C72.3966 17.76 72.6032 17.84 72.8566 17.84C73.0432 17.84 73.2566 17.7933 73.4966 17.7C73.7499 17.6067 74.0032 17.4867 74.2566 17.34L74.5366 17.86C74.0032 18.2867 73.4832 18.6133 72.9766 18.84C72.4699 19.0533 72.0299 19.16 71.6566 19.16ZM78.8245 19.16C77.4912 19.16 76.8245 18.3533 76.8245 16.74V10.82H75.5445V10.28C76.4512 10.16 77.1512 9.85333 77.6445 9.36C78.1379 8.85333 78.4712 8.14667 78.6445 7.24H79.1645V10.16H81.4645L81.2645 10.82H79.1645V16.58C79.1645 17.0867 79.2445 17.4267 79.4045 17.6C79.5645 17.76 79.7712 17.84 80.0245 17.84C80.2112 17.84 80.4245 17.7933 80.6645 17.7C80.9179 17.6067 81.1712 17.4867 81.4245 17.34L81.7045 17.86C81.1712 18.2867 80.6512 18.6133 80.1445 18.84C79.6379 19.0533 79.1979 19.16 78.8245 19.16ZM86.9195 19.16C86.0662 19.16 85.3062 18.96 84.6395 18.56C83.9862 18.16 83.4662 17.62 83.0795 16.94C82.7062 16.26 82.5195 15.5067 82.5195 14.68C82.5195 13.7467 82.7195 12.9267 83.1195 12.22C83.5329 11.5133 84.0862 10.96 84.7795 10.56C85.4862 10.16 86.2795 9.96 87.1595 9.96C87.8662 9.96 88.4795 10.1267 88.9995 10.46C89.5329 10.78 89.9462 11.2267 90.2395 11.8C90.5329 12.36 90.6795 12.9933 90.6795 13.7C90.6795 13.8333 90.6395 13.9533 90.5595 14.06C90.4929 14.1533 90.3795 14.2 90.2195 14.2H83.7395V13.48L88.0795 13.3C88.2662 13.3 88.3595 13.16 88.3595 12.88C88.3595 12.1733 88.2395 11.62 87.9995 11.22C87.7595 10.8067 87.4395 10.6 87.0395 10.6C86.4262 10.6 85.9462 10.9333 85.5995 11.6C85.2529 12.2667 85.0795 13.14 85.0795 14.22C85.0795 14.9667 85.2129 15.6 85.4795 16.12C85.7462 16.64 86.0995 17.0333 86.5395 17.3C86.9795 17.5667 87.4595 17.7 87.9795 17.7C88.7662 17.7 89.5529 17.3667 90.3395 16.7L90.6795 17.02C90.1462 17.7533 89.5662 18.2933 88.9395 18.64C88.3129 18.9867 87.6395 19.16 86.9195 19.16ZM97.6797 19V18.66L98.3197 18.42C98.5064 18.3533 98.6397 18.2533 98.7197 18.12C98.813 17.9733 98.8597 17.8067 98.8597 17.62V13.44C98.8597 12.8533 98.7064 12.4067 98.3997 12.1C98.1064 11.78 97.673 11.62 97.0997 11.62C96.5264 11.62 96.0797 11.8 95.7597 12.16C95.453 12.5067 95.2997 12.9533 95.2997 13.5L94.9997 11.4H95.2797C95.6797 11.2133 96.0797 11.0133 96.4797 10.8C96.893 10.5733 97.3064 10.34 97.7197 10.1C97.8664 10.0067 98.033 9.96 98.2197 9.96C99.1664 9.96 99.8997 10.2 100.42 10.68C100.94 11.16 101.2 11.8533 101.2 12.76V17.76C101.2 17.9467 101.26 18.0933 101.38 18.2C101.513 18.3067 101.633 18.38 101.74 18.42L102.38 18.66V19H97.6797ZM91.7797 19V18.66L92.4197 18.42C92.6064 18.3533 92.7397 18.2533 92.8197 18.12C92.913 17.9733 92.9597 17.8067 92.9597 17.62V11.9C92.9597 11.62 92.913 11.4333 92.8197 11.34C92.7264 11.2467 92.593 11.18 92.4197 11.14L91.7797 10.98V10.62C92.2997 10.54 92.7397 10.4733 93.0997 10.42C93.473 10.3533 93.8264 10.28 94.1597 10.2C94.493 10.1067 94.853 9.99333 95.2397 9.86L95.4397 10.02C95.3464 10.1667 95.273 10.3933 95.2197 10.7C95.1797 11.0067 95.1597 11.34 95.1597 11.7V11.9L95.2997 12.34V17.76C95.2997 17.9467 95.3597 18.0933 95.4797 18.2C95.613 18.3067 95.733 18.38 95.8397 18.42L96.4797 18.66V19H91.7797Z" fill="#C08484"/>
</svg>
